<?xml version="1.0" encoding="UTF-8"?>
<svg width="303px" height="163px" viewBox="0 0 303 163" version="1.1" xmlns="http://www.w3.org/2000/svg" xmlns:xlink="http://www.w3.org/1999/xlink">
    <!-- Generator: Sketch 52.6 (67491) - http://www.bohemiancoding.com/sketch -->
    <title>Path 16</title>
    <desc>Created with Sketch.</desc>
    <g id="Page-2" stroke="none" stroke-width="1" fill="none" fill-rule="evenodd">
        <g id="Mobile" transform="translate(-13.000000, -758.000000)" stroke="#5BCB79" stroke-width="5">
            <g id="main" transform="translate(8.000000, 307.000000)">
                <path d="M7.91015625,456.457031 C7.91015625,536.204481 7.26078545,367.496495 12.3007813,520.234375 C13.2786217,549.867986 5.47592919,580.330025 12.3007813,609.183594 C13.8721886,615.827065 25.3774445,605.106741 32.1132813,603.996094 C39.6937298,602.746181 47.4090759,602.431025 55.0859375,602.128906 C63.2371798,601.808118 71.4343874,601.39207 79.5585938,602.128906 C175.626357,610.841903 -65.746393,612.87338 201.679688,606.871094 C220.675738,606.444734 240.809248,601.4674 259.605469,600.453125 C272.014499,599.783513 286.528466,607.31891 296.886719,600.453125 C303.525436,596.052768 296.898654,584.452075 295.601563,576.59375 C293.042818,561.091794 286.721782,562.103559 289.40625,541.15625 C290.316512,534.053342 293.323302,527.338409 294.367188,520.253906 C295.284817,514.02626 294.239053,507.601242 295.265625,501.390625 C297.018254,490.787466 301.1178,480.645794 302.671875,470.011719 C303.428654,464.833303 307.342486,454.928563 302.144531,454.320312 C277.923545,451.486038 253.709548,460.77704 229.332031,461.429688 C159.324393,463.303969 89.2669271,461.739583 19.234375,461.894531 L7.91015625,456.457031 Z" id="Path-16"></path>
            </g>
        </g>
    </g>
</svg>