<?xml version="1.0" encoding="UTF-8"?>
<svg width="297px" height="173px" viewBox="0 0 297 173" version="1.1" xmlns="http://www.w3.org/2000/svg" xmlns:xlink="http://www.w3.org/1999/xlink">
    <!-- Generator: Sketch 52.6 (67491) - http://www.bohemiancoding.com/sketch -->
    <title>Path 14</title>
    <desc>Created with Sketch.</desc>
    <g id="Page-2" stroke="none" stroke-width="1" fill="none" fill-rule="evenodd" stroke-dasharray="20,20" stroke-linecap="round">
        <g id="Mobile" transform="translate(-12.000000, -305.000000)" stroke="#77F7D6" stroke-width="4">
            <g id="main" transform="translate(8.000000, 307.000000)">
                <path d="M7.65234375,8.2578125 C103.775226,3.49295788 111.903723,1.68335162 220.921875,4.04296875 C244.747607,4.55865907 274.755016,-7.7806223 292.285156,8.36328125 C307.478563,22.3552338 292.009726,49.6885345 292.894531,70.3242187 C306.669779,391.594686 285.992714,-219.345162 299.113281,164.980469 C299.129104,165.44396 299.051664,166.227144 298.589844,166.269531 C279.303608,168.039661 236.281425,169.479897 219.097656,168.191406 C201.411876,166.865273 184.085762,162.16866 166.398438,160.863281 C150.909314,159.720137 135.330947,161.256988 119.804688,160.863281 C98.3509926,160.31927 76.9341564,158.731847 55.484375,158.050781 C47.4025104,157.794169 39.2789138,157.314559 31.2265625,158.050781 C23.743319,158.734971 15.2224614,166.630032 9.0859375,162.292969 C4.19152988,158.833786 11.7317857,150.555943 12.1640625,144.578125 C12.7615367,136.315845 12.6659616,127.995198 12.1640625,119.726562 C5.60551915,11.6765566 5.67212235,77.8323669 6.38671875,16.734375 L7.65234375,8.2578125 Z" id="Path-14"></path>
            </g>
        </g>
    </g>
</svg>