<?xml version="1.0" encoding="UTF-8"?>
<svg width="305px" height="165px" viewBox="0 0 305 165" version="1.1" xmlns="http://www.w3.org/2000/svg" xmlns:xlink="http://www.w3.org/1999/xlink">
    <!-- Generator: Sketch 52.6 (67491) - http://www.bohemiancoding.com/sketch -->
    <title>Path 15</title>
    <desc>Created with Sketch.</desc>
    <g id="Page-2" stroke="none" stroke-width="1" fill="none" fill-rule="evenodd">
        <g id="Mobile" transform="translate(-6.000000, -536.000000)" stroke="#699DF7" stroke-width="5">
            <g id="main" transform="translate(8.000000, 307.000000)">
                <path d="M3.02734375,231.164062 C27.8179964,234.984064 51.7526661,241.187486 76.6601563,241.214844 C107.049967,241.248223 73.2641368,239.957015 123.132813,236.242188 C142.141978,234.826153 161.220237,234.36048 180.28125,234.183594 C220.441212,233.810908 260.604507,234.808318 300.765625,234.59375 C301.324223,234.590766 299.651787,233.023319 299.457031,233.546875 C280.18269,285.361513 298.69841,331.026425 289.488281,388.859375 C288.600937,394.431257 278.24677,387.363464 272.609375,387.59375 C254.355053,388.339435 236.229284,391.571884 217.960938,391.78125 C188.56255,392.118174 159.195875,389.508915 129.796875,389.230469 C89.7604465,388.851272 49.5932122,393.015111 9.68359375,389.808594 C6.28238669,389.535326 11.1792998,383.123099 11.4101563,379.71875 C11.7568094,374.606792 12.2536268,369.401451 11.4101563,364.347656 C10.3579174,358.042992 7.2871907,352.228506 5.78515625,346.015625 C3.92935282,338.339445 1.82610031,330.625242 1.3515625,322.742188 C0.0083418034,300.428513 0.298293414,278.041513 0.34765625,255.6875 C0.359528932,250.310943 1.13932292,244.963542 1.53515625,239.601562 L3.02734375,231.164062 Z" id="Path-15"></path>
            </g>
        </g>
    </g>
</svg>
