<?xml version="1.0" encoding="UTF-8"?>
<svg width="175px" height="126px" viewBox="0 0 175 126" version="1.1" xmlns="http://www.w3.org/2000/svg" xmlns:xlink="http://www.w3.org/1999/xlink">
    <!-- Generator: Sketch 52.6 (67491) - http://www.bohemiancoding.com/sketch -->
    <title>hi</title>
    <desc>Created with Sketch.</desc>
    <g id="Page-2" stroke="none" stroke-width="1" fill="none" fill-rule="evenodd">
        <g id="Mobile" transform="translate(-71.000000, -19.000000)">
            <g id="header">
                <g id="hi" transform="translate(73.000000, 21.000000)">
                    <text id="HI" font-family="ArialRoundedMTBold, Arial Rounded MT Bold" font-size="80" font-weight="normal" fill="#000000">
                        <tspan x="44.0898438" y="101">HI</tspan>
                    </text>
                    <g id="halo" stroke="#000000" stroke-linecap="round" stroke-width="3">
                        <path d="M90.1171875,21.7851562 C86.7802734,8.86328125 92.3488928,16.2635825 91.7109375,0.171875" id="Path"></path>
                        <path d="M70.3632813,19.8017578 C59.1226134,5.61931737 61.1083984,15.96875 59.25,4.86328125" id="Path-2"></path>
                        <path d="M38.8632812,24.625 C34.8662431,21.2419441 34.231807,17.293489 32.7900391,15.96875 C29.4620567,12.9109013 28.6551619,15.523624 21.0117188,11.96875" id="Path-3"></path>
                        <path d="M25.8398438,46.25 C20.2792969,40.84375 11.4830729,43.8072917 4.3046875,42.5859375" id="Path-4"></path>
                        <path d="M21.3789062,71.2539062 C19.7413905,71.5338442 16.7934761,71.7013736 16.4663589,72.0937201 C10.8222656,78.8632813 5.66586962,73.9400942 0.265625,74.8632812" id="Path-5"></path>
                        <path d="M19.4179688,101.84375 C5.01715969,107.557185 11.1074219,107.557185 2.796875,109.863281" id="Path-6"></path>
                        <path d="M118.597656,24.7539062 C126.776367,12.9023437 123.141932,17.6830159 128.338867,5.171875" id="Path-7"></path>
                        <path d="M139.618164,39.84375 C146.889648,40.84375 152.423177,29.4140625 158.894531,26.1992187" id="Path-8"></path>
                        <path d="M144.958984,63.515625 C159.959569,58.5882808 146.76549,53.6309747 161,52.8603516" id="Path-9"></path>
                        <path d="M145.355469,80.9765625 C158.568057,82.7989885 158.568057,75.2539063 171,85.9765625" id="Path-10"></path>
                        <path d="M147.066406,105.519531 C147.156916,118 147.156916,108.009316 158.703125,121.78125" id="Path-11"></path>
                    </g>
                </g>
            </g>
        </g>
    </g>
</svg>