<?xml version="1.0" encoding="UTF-8"?>
<svg width="226px" height="171px" viewBox="0 0 226 171" version="1.1" xmlns="http://www.w3.org/2000/svg" xmlns:xlink="http://www.w3.org/1999/xlink">
    <!-- Generator: Sketch 52.6 (67491) - http://www.bohemiancoding.com/sketch -->
    <title>Path 24</title>
    <desc>Created with Sketch.</desc>
    <g id="Page-2" stroke="none" stroke-width="1" fill="none" fill-rule="evenodd">
        <g id="Mobile" transform="translate(-37.000000, -16.000000)" stroke="#000000" stroke-width="3">
            <path d="M142.773438,100.015625 C129.789528,100.015625 116.492498,98.098265 107.019531,109.226563 C105.494296,111.018321 100.209772,123.020853 104.140625,125.9375 C110.790388,130.871546 127.019242,124.599696 131.910156,119.707031 C133.463064,118.153567 137.027948,115.513778 135.355469,114.089844 C131.120203,110.483975 121.25745,115.503721 118,117.898438 C116.932382,118.683297 114.409423,120.899697 115.710938,121.148438 C119.613329,121.894249 143.893682,124.43559 143.054688,112.09375 C142.82449,108.707485 116.92019,107.455849 128.988281,109.421875 C139.723644,111.170785 157.028159,114.797822 168.902344,111.320313 C170.793246,110.766537 172.029472,108.804803 173.078125,107.136719 C174.260796,105.255453 175.057466,103.093577 175.449219,100.90625 C176.183736,96.8051255 176.902713,92.5843068 176.425781,88.4453125 C174.928782,75.4537803 155.8531,77.4498813 147.867188,78.1367188 C147.109868,78.2018529 146.734761,79.6747553 147.160156,80.3046875 C153.139151,89.158481 187.803585,101.063149 189.480469,87.90625 C191.567904,71.5281468 186.623555,61.6138839 169.199219,61.0898438 C164.487686,60.9481435 152.107605,58.1437056 149.09375,65.7070313 C145.209068,75.4557126 168.146283,78.6304797 169.378906,67.0976563 C171.350212,48.6534866 129.587847,44.6140794 123.441406,58.2695313 C119.612155,66.7769199 134.821262,66.8115902 138.464844,66.7734375 C140.151856,66.7557725 136.816251,63.6450995 135.378906,62.7617188 C132.007223,60.6895091 128.207764,59.3554278 124.4375,58.1523438 C119.461003,56.5643531 114.42782,54.8049826 109.21875,54.4140625 C94.5341357,53.3120403 79.7545992,52.9637409 65.046875,53.6953125 C61.2717575,53.8830893 57.6899451,55.5906635 54.2460938,57.1484375 C51.5865722,58.3514318 49.0503823,59.9383688 46.8945313,61.90625 C44.1592556,64.4030355 40.6825421,66.8194394 39.7304688,70.3984375 C32.4526842,97.7568109 59.6151671,134.971689 90.2460938,130.066406 C99.8183802,128.533486 99.7755512,124.0768 102.074219,114.695313 C102.210007,114.141123 101.556613,113.09181 101.039063,113.332031 C100.269784,113.689093 99.1708243,115.497326 100.003906,115.65625 C113.492429,118.229405 133.155885,110.533944 133.691406,94.5859375 C134.472781,71.3163232 115.26458,69.9243017 95.0820312,75.7929688 C90.3733185,77.1621649 80.6230905,83.2625478 83.5820312,90.53125 C86.9354331,98.7689545 127.981446,111.559907 125.53125,80.65625 C123.030948,49.1206196 75.9587827,46.7557521 82.8398438,86.7617188 C83.1129137,88.3493265 85.7372964,88.4613997 87.3476562,88.5039063 C115.433641,89.2452547 143.54401,88.4798938 171.632813,89.1054688 C173.643434,89.150248 177.7143,88.5120491 177.5,90.5117188 C176.810593,96.9447108 156.608841,112.480434 155.230469,113.53125 C140.490262,124.768598 99.1323787,154.501106 79.53125,146.089844 C71.915188,142.821629 73.9988541,113.082564 80.8984375,106.203125 C90.7625502,96.3678126 106.532467,97.48216 119.28125,98.8789063 C139.510536,101.09521 146.696247,146.128883 149.53125,156.148438 C150.312406,158.909223 155.301301,166.242186 159.582031,162.765625 C170.7929,153.660808 192.759664,115.340194 190.667969,100.597656 C190.425948,98.8918656 187.711169,98.5504618 185.996094,98.3867188 C176.23095,97.4544133 166.359481,96.5040592 156.585937,97.34375 C143.679847,98.4525725 125.151117,115.020232 130.695312,129.542969 C133.120843,135.896521 152.718815,134.461282 157.382812,132.054688 C174.928495,123.001221 186.410321,104.193735 186.324219,84.4179688 C186.311747,81.5535295 185.243385,78.5420547 183.425781,76.328125 C169.620443,59.5125521 136.652803,85.9947247 155.960937,95.5195313 C162.101624,98.5487651 168.500425,101.469486 175.261719,102.550781 C185.920529,104.255385 196.838836,104.289996 207.621094,103.78125 C210.416713,103.649343 213.075189,102.193311 215.414062,100.65625 C217.209075,99.4766039 218.35787,97.5213729 219.699219,95.84375 C220.22913,95.1809909 220.90447,94.5024007 221.007812,93.6601563 C221.514057,89.5342647 223.351509,84.9189899 221.496094,81.1992188 C219.881033,77.9613158 215.62395,76.5574775 212.089844,75.78125 C206.342737,74.5189613 189.369656,72.2811839 194.445313,75.2578125 C199.427869,78.1798426 232.090286,82.798677 240.117187,82.0859375 C241.657805,81.9491402 242.714375,80.0685149 243.167969,78.5898438 C244.410826,74.5382459 244.620444,70.2320569 245.046875,66.015625 C245.24825,64.0244801 245.770486,61.8776228 245.046875,60.0117188 C237.455066,40.435461 201.21659,79.8312975 218.132812,92.3359375 C230.470205,101.455861 246.747422,95.0235901 260.597656,96.2773438 C261.628597,96.3706668 261.167337,98.5185139 260.597656,99.3828125 C256.509187,105.585685 251.866074,111.433823 246.941406,116.996094 C242.561323,121.943272 236.094389,125.137274 232.75,130.835938 C225.155936,143.775822 240.571119,131.656031 243.855469,128.210938 C245.718216,126.257023 247.330601,123.884048 248.046875,121.28125 C248.771011,118.649884 249.813082,115.147432 248.015625,113.09375 C245.466642,110.181413 240.9935,109.626311 237.195312,108.882813 C221.795627,105.868311 190.483134,126.941499 201.421875,145.789063 C206.515576,154.565561 239.234008,163.565467 236.445312,144.9375 C235.22898,136.812622 218.970341,136.12639 214.335937,136.125 C194.755847,136.119126 184.486487,146.850331 177.855469,164.59375 C177.068729,166.698924 176.349964,173.453143 176.625,171.222656 C179.696435,146.313955 176.021808,139.628686 147.847656,138.421875 C146.949762,138.383415 124.23937,133.25862 120.84375,142.765625 C113.566473,163.140434 153.311413,140.041241 127.210937,126.269531 C114.41502,119.517866 93.8137661,114.123551 84.3476562,127.789063 C83.4653124,129.062836 82.4427636,130.405945 82.265625,131.945312 C81.5803813,137.900206 81.6890635,143.928726 81.8007812,149.921875 C81.8327912,151.639065 82.0448449,153.406548 82.6953125,154.996094 C83.6195272,157.254595 84.0498855,161.726446 86.4492187,161.28125 L88.5039062,161.984375 C103.564706,159.189842 76.7412043,136.680877 76.296875,136.507813 C72.9563226,135.206678 65.5573102,138.889312 65.609375,135.304688 C65.7132084,128.15583 73.2253859,123.187676 76.5820312,116.875 C79.3257524,111.71502 78.1272315,102.741171 74.8867187,98.15625 C64.2147904,83.056802 50.4239641,70.0966537 41.2773438,54.0273438 C39.6745592,51.2114795 47.5844809,55.7094597 50.8203125,55.875 C60.327471,56.361372 69.9364964,57.1863222 79.3789062,55.9765625 C82.0565671,55.6335011 86.8377854,53.94075 86.0351562,51.3632813 C84.7523685,47.2438881 71.6365025,45.5181218 75.5703125,43.7460938 C85.8696405,39.1066479 98.1125715,42.1465116 109.335937,40.8671875 C111.122416,40.6635512 113.066361,40.3937908 114.5,39.3085938 C115.45029,38.5892689 116.519262,35.0285978 115.796875,35.9765625 C109.947948,43.6519202 111.827395,64.9449991 113.503906,72.1679688 C114.1296,74.8636651 116.394144,77.0295435 118.558594,78.7539062 C138.161633,94.3711525 166.518239,47.3055644 159.785156,35.7617188 C151.694138,21.8896983 119.720797,42.3538875 146.628906,54.4726563 C150.704583,56.3082438 155.649422,57.468039 159.929688,56.1796875 C163.07383,55.2333069 164.395068,51.3254426 166.199219,48.5820312 C167.828763,46.104129 169.729547,43.5508898 170.164062,40.6171875 C170.300083,39.6988206 168.134712,40.0780619 167.378906,40.6171875 C164.710475,42.5206113 162.44028,44.9838513 160.421875,47.5664063 C156.965795,51.9884714 153.940788,56.7420853 151.027344,61.5390625 C149.841516,63.4915238 148.727425,65.5499205 148.15625,67.7617188 C147.596881,69.9278018 146.625166,72.490323 147.691406,74.4570312 C150.050222,78.8079289 157.857356,76.6068623 160.113281,75.59375 C166.980665,72.5096795 173.204466,68.0785656 179.21875,63.5507813 C183.689126,60.1853103 188.295357,56.6640779 191.421875,52.0234375 C194.054607,48.1157156 196.596273,43.3219108 195.996094,38.6484375 C195.7299,36.5756424 191.22361,38.4360649 189.882812,40.0390625 C185.022059,45.8503633 181.53102,52.7570332 178.417969,59.6640625 C166.82335,85.3894274 181.728704,114.368022 199.882812,78.03125 C200.950119,75.8949579 201.522226,73.5069534 201.84375,71.140625 C206.548554,36.5145067 178.205144,103.590845 208.082031,88.7734375 C211.940946,86.8596135 214.917158,83.426632 217.683594,80.125 C224.177549,72.3747215 199.79419,75.5316753 198.296875,76.390625 C179.456367,87.1986692 165.624829,112.992751 162.464844,134.058594 C161.336416,141.581189 154.510318,153.221402 161.199219,156.84375 L162.914062,160.21875 C178.094319,168.439558 184.579021,138.463425 187.511719,130.441406 C187.667749,130.014606 187.963969,129.122548 187.511719,129.078125 C163.594761,126.728823 187.401502,138.286978 197.433594,133.375 C201.993385,131.142405 204.684422,126.147624 207.402344,121.859375 C210.43392,117.076252 215.121798,112.059654 214.511719,106.429688 C214.000683,101.713717 209.038202,114.239414 207.042969,118.542969 C205.774289,121.279406 205.327992,124.341886 204.828125,127.316406 C204.584715,128.764846 204.466106,130.299221 204.828125,131.722656 C204.9997,132.397277 205.666134,132.945682 206.320312,133.183594 C208.444995,133.956299 210.791855,135.384306 212.9375,134.671875 C217.031355,133.312569 212.736918,127.700277 210.417969,125.605469 C207.155556,122.658389 203.425545,120.151802 199.441406,118.292969 C189.484275,113.647384 174.608823,112.903683 164.101562,115.898438 C161.937694,116.515178 159.799829,117.484242 158.0625,118.914063 C152.518271,123.476959 147.216444,128.38223 142.429688,133.734375 C140.930107,135.411078 140.007109,137.600724 139.410156,139.769531 C137.210154,147.762425 135.173591,155.844541 134.082031,164.0625 C133.187208,170.799298 132.334809,177.742037 133.476562,184.441406 C133.702423,185.766669 136.412462,184.379494 137.386719,183.453125 C139.816917,181.14238 141.444462,178.09693 143.171875,175.222656 C145.400216,171.514879 153.213264,165.434423 149.230469,163.746094 L150.394531,157.96875 C139.55366,153.373245 125.715635,155.266366 122.59375,167.753906 C122.24321,169.156065 121.162578,171.888161 122.59375,172.089844 C124.639792,172.378175 137.940572,135.261754 129.511719,134.800781 C121.392661,134.356752 113.219274,133.448717 105.125,134.222656 C99.4485256,134.765416 93.9453279,136.679222 88.6171875,138.710938 C85.7304325,139.811709 83.0562825,141.533232 80.703125,143.535156 C79.9398127,144.184536 79.5752597,145.347622 79.640625,146.347656 C81.2614099,171.14428 118.98726,133.643274 93.296875,130.757812 C86.4143693,129.984791 79.3758967,129.779703 72.5195312,130.757812 C68.941876,131.268191 65.613487,133.139618 62.6015625,135.136719 C58.9073999,137.586188 55.2212192,140.340421 52.6367188,143.941406 C50.8624106,146.41355 50.4525728,149.673302 50.0078125,152.683594 C49.5384834,155.860175 48.6354595,159.374285 49.921875,162.316406 C50.7943442,164.311803 56.9112687,162.77787 57.9140625,161.734375 C61.2482056,158.264906 64.421561,154.532574 66.7617188,150.328125 C69.7585313,144.943896 72.0610677,139.143638 73.78125,133.226562 C80.94898,108.571038 69.3512708,108.82113 53.46875,98.453125 C52.7992876,98.0161044 53.0350596,96.7263121 53.46875,96.0546875 C57.1419062,90.3663393 62.3972032,85.7183725 65.5585938,79.7304688 C66.9552542,77.0850921 68.1272194,73.5113685 66.78125,70.8398437 C65.1271725,67.5567758 61.028995,66.2094501 57.8320312,64.3945312 C56.4751945,63.624254 53.733671,61.6901926 53.3085938,63.1914062 C49.1481938,77.8843799 54.8255406,95.2358764 63.2851562,107.09375 C64.0801626,108.208113 69.6770236,111.704882 71.5664062,110.144531 C83.7805345,100.057464 96.4597811,81.1215571 97.8359375,64.7773438 C97.93483,63.6028266 96.6391033,62.6407456 95.6523438,61.9960938 C79.8483187,51.6712944 67.6408106,75.3771396 82.671875,76.8476562 C90.6167229,77.6249153 98.6712349,78.8336003 106.597656,77.8867188 C111.460133,77.3058526 116.341093,75.3641792 120.210938,72.3632812 C127.532314,66.6858688 134.524871,60.1714133 139.511719,52.3632813 C146.281793,41.7630708 148.494459,28.7248157 154.96875,17.9414062 C156.127309,16.0117412 154.093724,23.7661916 156.191406,24.5820312 L158.511719,26.4375 C173.974569,32.4513783 194.911161,30.6445689 205.214844,43.6484375 C213.837369,54.5305846 192.174077,80.3678653 205.152344,85.3007812 L208.191406,89.6210938 C209.725676,90.204255 211.977387,89.596293 212.921875,88.2539062 C216.070704,83.7785221 218.290449,78.5858131 219.679688,73.2929688 C221.224523,67.4073202 222.155606,61.2014218 221.613281,55.140625 C221.06026,48.9602863 213.740203,55.0632742 213.105469,56.6132812 C209.001311,66.6355493 205.855122,74.2272907 207.714844,85.3945312 C210.723628,103.461647 233.439451,82.4794499 236.175781,73.9921875 C237.63124,69.4777976 238.525466,64.6194593 238.109375,59.8945312 C237.470335,52.6379062 226.292896,51.6886723 221.753906,55.0859375 C214.163756,60.7668828 217.841236,75.9841473 219.378906,82.6875 C222.61582,96.7985665 253.509635,96.9738666 250.085938,78.9726562 C249.063607,73.5974178 239.272196,80.7826869 238.839844,81.15625 C233.348903,85.9005609 219.753183,120.97767 224.878906,125.644531 C228.214055,128.681112 236.638461,126.318463 239.722656,123.671875 C240.309587,123.168223 240.553239,122.01062 240.101562,121.382813 C231.283509,109.126161 200.007199,115.170929 189.445312,119.398438 C185.062925,121.152535 181.409671,124.388836 177.691406,127.296875 C172.012201,131.738558 163.187983,148.368632 161.300781,141.410156 C158.358154,130.560123 169.938337,120.589529 172.933594,109.753906 C175.761382,99.5241146 177.111517,88.9342306 178.707031,78.4414062 C180.739447,65.0753184 167.406881,65.2032371 158.03125,63.8632812 C157.343172,63.7649418 159.82364,64.1514909 160.085938,63.5078125 L162.359375,60.0742187 C163.582291,57.0731876 164.735296,53.9938206 165.265625,50.796875 C165.715236,48.0865182 165.68328,45.2701522 165.265625,42.5546875 C164.907133,40.2238816 164.409968,37.7298458 162.96875,35.8632812 C160.729348,32.9629644 158.042578,29.9869893 154.597656,28.7382812 C150.295834,27.178966 145.471628,28.0151465 140.898438,27.8632812 C139.930681,27.8311443 138.731976,27.5403409 138.011719,28.1875 C131.155898,34.3475339 152.809866,27.2037263 148.527344,26.2539062 C142.575031,24.9337436 134.212482,22.3232864 130.25,26.9570312 C125.308517,32.7356247 126.072242,72.7500914 126.765625,78.5039062 C126.880982,79.4611599 129.012505,79.5903149 129.636719,78.8554688 C133.538043,74.2626937 140.125214,69.618359 139.394531,63.6367188 C138.797305,58.7476063 131.351654,57.8120726 126.828125,55.8632812 C125.109622,55.1229292 122.780766,54.7803539 121.214844,55.8046875 C110.159597,63.0363728 150.235755,49.8459259 125.4375,40.6132812 C119.858351,38.5361068 114.189546,36.4290903 108.292969,35.609375 C105.147288,35.1720769 101.405589,35.0249757 98.8554688,36.9179688 C95.6764316,39.2778165 77.0056108,70.3299514 83.0703125,73.9960938 C90.1009435,78.2461452 99.4983408,73.6870509 107.710938,73.4726562 C109.240364,73.4327297 104.611555,73.1273056 103.121094,73.4726562 C99.3263723,74.351921 95.3864528,75.1573152 92.015625,77.109375 C87.3843483,79.7913658 82.9378713,83.0612455 79.4921875,87.15625 C77.4205456,89.6182817 76.5569048,92.9846325 75.9921875,96.1523438 C75.3699186,99.6428836 75.6523891,103.25981 75.9921875,106.789062 C76.2458956,109.424155 76.748259,112.085646 77.7617188,114.53125 C78.2051348,115.601268 79.1483978,116.545673 80.21875,116.988281 C84.1029379,118.594457 92.3830841,121.291798 97.5039062,120.171875 C98.8750484,119.872006 102.348246,118.751598 101.136719,118.042969 C88.0536958,110.390635 60.0436009,150.35579 55.6210938,161.332031 C55.4123353,161.85015 55.0688937,162.923539 55.6210938,163.007812 C59.2393556,163.560013 62.9414062,163.007812 66.6015625,163.007812" id="Path-24"></path>
        </g>
    </g>
</svg>