<?xml version="1.0" encoding="UTF-8"?>
<svg width="226px" height="171px" viewBox="0 0 226 171" version="1.1" xmlns="http://www.w3.org/2000/svg" xmlns:xlink="http://www.w3.org/1999/xlink">
    <!-- Generator: Sketch 52.6 (67491) - http://www.bohemiancoding.com/sketch -->
    <title>krabbel</title>
    <desc>Created with Sketch.</desc>
    <g id="Page-2" stroke="none" stroke-width="1" fill="none" fill-rule="evenodd">
        <g id="Mobile" transform="translate(-37.000000, -16.000000)">
            <g id="header">
                <g id="krabbel" transform="translate(38.000000, 17.000000)">
                    <path d="M104.773438,83.015625 C91.7895282,83.015625 78.4924981,81.098265 69.0195313,92.2265625 C67.4942962,94.0183211 62.2097715,106.020853 66.140625,108.9375 C72.7903882,113.871546 89.0192423,107.599696 93.9101563,102.707031 C95.4630644,101.153567 99.0279478,98.513778 97.3554688,97.0898438 C93.120203,93.4839751 83.2574503,98.5037212 80,100.898438 C78.9323824,101.683297 76.409423,103.899697 77.7109375,104.148438 C81.6133293,104.894249 105.893682,107.43559 105.054688,95.09375 C104.82449,91.7074846 78.9201899,90.4558492 90.9882813,92.421875 C101.723644,94.1707846 119.028159,97.7978219 130.902344,94.3203125 C132.793246,93.7665372 134.029472,91.804803 135.078125,90.1367188 C136.260796,88.2554535 137.057466,86.0935769 137.449219,83.90625 C138.183736,79.8051255 138.902713,75.5843068 138.425781,71.4453125 C136.928782,58.4537803 117.8531,60.4498813 109.867188,61.1367188 C109.109868,61.2018529 108.734761,62.6747553 109.160156,63.3046875 C115.139151,72.158481 149.803585,84.0631489 151.480469,70.90625 C153.567904,54.5281468 148.623555,44.6138839 131.199219,44.0898438 C126.487686,43.9481435 114.107605,41.1437056 111.09375,48.7070313 C107.209068,58.4557126 130.146283,61.6304797 131.378906,50.0976563 C133.350212,31.6534866 91.5878471,27.6140794 85.4414063,41.2695313 C81.6121546,49.7769199 96.8212617,49.8115902 100.464844,49.7734375 C102.151856,49.7557725 98.8162512,46.6450995 97.3789063,45.7617188 C94.007223,43.6895091 90.2077639,42.3554278 86.4375,41.1523438 C81.4610034,39.5643531 76.4278204,37.8049826 71.21875,37.4140625 C56.5341357,36.3120403 41.7545992,35.9637409 27.046875,36.6953125 C23.2717575,36.8830893 19.6899451,38.5906635 16.2460938,40.1484375 C13.5865722,41.3514318 11.0503823,42.9383688 8.89453125,44.90625 C6.15925557,47.4030355 2.68254207,49.8194394 1.73046875,53.3984375 C-5.54731581,80.7568109 21.6151671,117.971689 52.2460938,113.066406 C61.8183802,111.533486 61.7755512,107.0768 64.0742188,97.6953125 C64.2100073,97.1411226 63.556613,96.0918097 63.0390625,96.3320313 C62.2697839,96.6890926 61.1708243,98.4973261 62.0039063,98.65625 C75.4924291,101.229405 95.1558851,93.5339438 95.6914063,77.5859375 C96.4727811,54.3163232 77.26458,52.9243017 57.0820313,58.7929688 C52.3733185,60.1621649 42.6230905,66.2625478 45.5820313,73.53125 C48.9354331,81.7689545 89.9814463,94.5599075 87.53125,63.65625 C85.0309478,32.1206196 37.9587827,29.7557521 44.8398438,69.7617188 C45.1129137,71.3493265 47.7372964,71.4613997 49.3476563,71.5039063 C77.4336414,72.2452547 105.54401,71.4798938 133.632813,72.1054688 C135.643434,72.150248 139.7143,71.5120491 139.5,73.5117188 C138.810593,79.9447108 118.608841,95.4804336 117.230469,96.53125 C102.490262,107.768598 61.1323787,137.501106 41.53125,129.089844 C33.915188,125.821629 35.9988541,96.0825636 42.8984375,89.203125 C52.7625502,79.3678126 68.5324675,80.48216 81.28125,81.8789063 C101.510536,84.0952104 108.696247,129.128883 111.53125,139.148438 C112.312406,141.909223 117.301301,149.242186 121.582031,145.765625 C132.7929,136.660808 154.759664,98.3401935 152.667969,83.5976563 C152.425948,81.8918656 149.711169,81.5504618 147.996094,81.3867188 C138.23095,80.4544133 128.359481,79.5040592 118.585938,80.34375 C105.679847,81.4525725 87.1511166,98.0202321 92.6953125,112.542969 C95.1208429,118.896521 114.718815,117.461282 119.382812,115.054688 C136.928495,106.001221 148.410321,87.1937348 148.324219,67.4179688 C148.311747,64.5535295 147.243385,61.5420547 145.425781,59.328125 C131.620443,42.5125521 98.6528029,68.9947247 117.960938,78.5195313 C124.101624,81.5487651 130.500425,84.4694855 137.261719,85.5507813 C147.920529,87.2553849 158.838836,87.2899955 169.621094,86.78125 C172.416713,86.6493427 175.075189,85.1933108 177.414062,83.65625 C179.209075,82.4766039 180.35787,80.5213729 181.699219,78.84375 C182.22913,78.1809909 182.90447,77.5024007 183.007812,76.6601563 C183.514057,72.5342647 185.351509,67.9189899 183.496094,64.1992188 C181.881033,60.9613158 177.62395,59.5574775 174.089844,58.78125 C168.342737,57.5189613 151.369656,55.2811839 156.445313,58.2578125 C161.427869,61.1798426 194.090286,65.798677 202.117187,65.0859375 C203.657805,64.9491402 204.714375,63.0685149 205.167969,61.5898438 C206.410826,57.5382459 206.620444,53.2320569 207.046875,49.015625 C207.24825,47.0244801 207.770486,44.8776228 207.046875,43.0117188 C199.455066,23.435461 163.21659,62.8312975 180.132812,75.3359375 C192.470205,84.4558607 208.747422,78.0235901 222.597656,79.2773438 C223.628597,79.3706668 223.167337,81.5185139 222.597656,82.3828125 C218.509187,88.5856847 213.866074,94.4338234 208.941406,99.9960938 C204.561323,104.943272 198.094389,108.137274 194.75,113.835938 C187.155936,126.775822 202.571119,114.656031 205.855469,111.210938 C207.718216,109.257023 209.330601,106.884048 210.046875,104.28125 C210.771011,101.649884 211.813082,98.1474317 210.015625,96.09375 C207.466642,93.1814134 202.9935,92.626311 199.195312,91.8828125 C183.795627,88.8683108 152.483134,109.941499 163.421875,128.789063 C168.515576,137.565561 201.234008,146.565467 198.445312,127.9375 C197.22898,119.812622 180.970341,119.12639 176.335937,119.125 C156.755847,119.119126 146.486487,129.850331 139.855469,147.59375 C139.068729,149.698924 138.349964,156.453143 138.625,154.222656 C141.696435,129.313955 138.021808,122.628686 109.847656,121.421875 C108.949762,121.383415 86.2393699,116.25862 82.84375,125.765625 C75.5664728,146.140434 115.311413,123.041241 89.2109375,109.269531 C76.4150197,102.517866 55.8137661,97.123551 46.3476563,110.789063 C45.4653124,112.062836 44.4427636,113.405945 44.265625,114.945312 C43.5803813,120.900206 43.6890635,126.928726 43.8007813,132.921875 C43.8327912,134.639065 44.0448449,136.406548 44.6953125,137.996094 C45.6195272,140.254595 46.0498855,144.726446 48.4492188,144.28125 L50.5039063,144.984375 C65.5647065,142.189842 38.7412043,119.680877 38.296875,119.507813 C34.9563226,118.206678 27.5573102,121.889312 27.609375,118.304688 C27.7132084,111.15583 35.2253859,106.187676 38.5820313,99.875 C41.3257524,94.7150196 40.1272315,85.7411715 36.8867188,81.15625 C26.2147904,66.056802 12.4239641,53.0966537 3.27734375,37.0273437 C1.67455924,34.2114795 9.58448092,38.7094597 12.8203125,38.875 C22.327471,39.361372 31.9364964,40.1863222 41.3789063,38.9765625 C44.0565671,38.6335011 48.8377854,36.94075 48.0351563,34.3632813 C46.7523685,30.2438881 33.6365025,28.5181218 37.5703125,26.7460938 C47.8696405,22.1066479 60.1125715,25.1465116 71.3359375,23.8671875 C73.1224159,23.6635512 75.0663611,23.3937908 76.5,22.3085937 C77.4502902,21.5892689 78.5192617,18.0285978 77.796875,18.9765625 C71.947948,26.6519202 73.8273949,47.9449991 75.5039063,55.1679687 C76.1295998,57.8636651 78.3941437,60.0295435 80.5585938,61.7539062 C100.161633,77.3711525 128.518239,30.3055644 121.785156,18.7617187 C113.694138,4.8896983 81.7207968,25.3538875 108.628906,37.4726563 C112.704583,39.3082438 117.649422,40.468039 121.929688,39.1796875 C125.07383,38.2333069 126.395068,34.3254426 128.199219,31.5820312 C129.828763,29.104129 131.729547,26.5508898 132.164063,23.6171875 C132.300083,22.6988206 130.134712,23.0780619 129.378906,23.6171875 C126.710475,25.5206113 124.44028,27.9838513 122.421875,30.5664062 C118.965795,34.9884714 115.940788,39.7420853 113.027344,44.5390625 C111.841516,46.4915238 110.727425,48.5499205 110.15625,50.7617188 C109.596881,52.9278018 108.625166,55.490323 109.691406,57.4570312 C112.050222,61.8079289 119.857356,59.6068623 122.113281,58.59375 C128.980665,55.5096795 135.204466,51.0785656 141.21875,46.5507813 C145.689126,43.1853103 150.295357,39.6640779 153.421875,35.0234375 C156.054607,31.1157156 158.596273,26.3219108 157.996094,21.6484375 C157.7299,19.5756424 153.22361,21.4360649 151.882813,23.0390625 C147.022059,28.8503633 143.53102,35.7570332 140.417969,42.6640625 C128.82335,68.3894274 143.728704,97.3680223 161.882813,61.03125 C162.950119,58.8949579 163.522226,56.5069534 163.84375,54.140625 C168.548554,19.5145067 140.205144,86.5908446 170.082031,71.7734375 C173.940946,69.8596135 176.917158,66.426632 179.683594,63.125 C186.177549,55.3747215 161.79419,58.5316753 160.296875,59.390625 C141.456367,70.1986692 127.624829,95.9927513 124.464844,117.058594 C123.336416,124.581189 116.510318,136.221402 123.199219,139.84375 L124.914063,143.21875 C140.094319,151.439558 146.579021,121.463425 149.511719,113.441406 C149.667749,113.014606 149.963969,112.122548 149.511719,112.078125 C125.594761,109.728823 149.401502,121.286978 159.433594,116.375 C163.993385,114.142405 166.684422,109.147624 169.402344,104.859375 C172.43392,100.076252 177.121798,95.059654 176.511719,89.4296875 C176.000683,84.7137171 171.038202,97.2394145 169.042969,101.542969 C167.774289,104.279406 167.327992,107.341886 166.828125,110.316406 C166.584715,111.764846 166.466106,113.299221 166.828125,114.722656 C166.9997,115.397277 167.666134,115.945682 168.320313,116.183594 C170.444995,116.956299 172.791855,118.384306 174.9375,117.671875 C179.031355,116.312569 174.736918,110.700277 172.417969,108.605469 C169.155556,105.658389 165.425545,103.151802 161.441406,101.292969 C151.484275,96.6473844 136.608823,95.9036831 126.101563,98.8984375 C123.937694,99.5151782 121.799829,100.484242 120.0625,101.914063 C114.518271,106.476959 109.216444,111.38223 104.429688,116.734375 C102.930107,118.411078 102.007109,120.600724 101.410156,122.769531 C99.2101544,130.762425 97.1735913,138.844541 96.0820313,147.0625 C95.1872082,153.799298 94.3348085,160.742037 95.4765625,167.441406 C95.7024232,168.766669 98.4124616,167.379494 99.3867188,166.453125 C101.816917,164.14238 103.444462,161.09693 105.171875,158.222656 C107.400216,154.514879 115.213264,148.434423 111.230469,146.746094 L112.394531,140.96875 C101.55366,136.373245 87.715635,138.266366 84.59375,150.753906 C84.2432102,152.156065 83.1625783,154.888161 84.59375,155.089844 C86.6397917,155.378175 99.9405717,118.261754 91.5117188,117.800781 C83.3926615,117.356752 75.219274,116.448717 67.125,117.222656 C61.4485256,117.765416 55.9453279,119.679222 50.6171875,121.710938 C47.7304325,122.811709 45.0562825,124.533232 42.703125,126.535156 C41.9398127,127.184536 41.5752597,128.347622 41.640625,129.347656 C43.2614099,154.14428 80.9872595,116.643274 55.296875,113.757812 C48.4143693,112.984791 41.3758967,112.779703 34.5195313,113.757812 C30.941876,114.268191 27.613487,116.139618 24.6015625,118.136719 C20.9073999,120.586188 17.2212192,123.340421 14.6367188,126.941406 C12.8624106,129.41355 12.4525728,132.673302 12.0078125,135.683594 C11.5384834,138.860175 10.6354595,142.374285 11.921875,145.316406 C12.7943442,147.311803 18.9112687,145.77787 19.9140625,144.734375 C23.2482056,141.264906 26.421561,137.532574 28.7617188,133.328125 C31.7585313,127.943896 34.0610677,122.143638 35.78125,116.226562 C42.94898,91.5710376 31.3512708,91.8211298 15.46875,81.453125 C14.7992876,81.0161044 15.0350596,79.7263121 15.46875,79.0546875 C19.1419062,73.3663393 24.3972032,68.7183725 27.5585938,62.7304687 C28.9552542,60.0850921 30.1272194,56.5113685 28.78125,53.8398437 C27.1271725,50.5567758 23.028995,49.2094501 19.8320313,47.3945312 C18.4751945,46.624254 15.733671,44.6901926 15.3085938,46.1914062 C11.1481938,60.8843799 16.8255406,78.2358764 25.2851563,90.09375 C26.0801626,91.2081132 31.6770236,94.7048825 33.5664063,93.1445312 C45.7805345,83.0574641 58.4597811,64.1215571 59.8359375,47.7773437 C59.93483,46.6028266 58.6391033,45.6407456 57.6523438,44.9960938 C41.8483187,34.6712944 29.6408106,58.3771396 44.671875,59.8476562 C52.6167229,60.6249153 60.6712349,61.8336003 68.5976563,60.8867188 C73.4601332,60.3058526 78.3410927,58.3641792 82.2109375,55.3632812 C89.5323145,49.6858688 96.5248713,43.1714133 101.511719,35.3632813 C108.281793,24.7630708 110.494459,11.7248157 116.96875,0.94140625 C118.127309,-0.988258771 116.093724,6.76619162 118.191406,7.58203125 L120.511719,9.4375 C135.974569,15.4513783 156.911161,13.6445689 167.214844,26.6484375 C175.837369,37.5305846 154.174077,63.3678653 167.152344,68.3007812 L170.191406,72.6210938 C171.725676,73.204255 173.977387,72.596293 174.921875,71.2539062 C178.070704,66.7785221 180.290449,61.5858131 181.679688,56.2929688 C183.224523,50.4073202 184.155606,44.2014218 183.613281,38.140625 C183.06026,31.9602863 175.740203,38.0632742 175.105469,39.6132812 C171.001311,49.6355493 167.855122,57.2272907 169.714844,68.3945312 C172.723628,86.4616474 195.439451,65.4794499 198.175781,56.9921875 C199.63124,52.4777976 200.525466,47.6194593 200.109375,42.8945312 C199.470335,35.6379062 188.292896,34.6886723 183.753906,38.0859375 C176.163756,43.7668828 179.841236,58.9841473 181.378906,65.6875 C184.61582,79.7985665 215.509635,79.9738666 212.085938,61.9726562 C211.063607,56.5974178 201.272196,63.7826869 200.839844,64.15625 C195.348903,68.9005609 181.753183,103.97767 186.878906,108.644531 C190.214055,111.681112 198.638461,109.318463 201.722656,106.671875 C202.309587,106.168223 202.553239,105.01062 202.101563,104.382813 C193.283509,92.1261614 162.007199,98.1709286 151.445313,102.398438 C147.062925,104.152535 143.409671,107.388836 139.691406,110.296875 C134.012201,114.738558 125.187983,131.368632 123.300781,124.410156 C120.358154,113.560123 131.938337,103.589529 134.933594,92.7539062 C137.761382,82.5241146 139.111517,71.9342306 140.707031,61.4414062 C142.739447,48.0753184 129.406881,48.2032371 120.03125,46.8632812 C119.343172,46.7649418 121.82364,47.1514909 122.085938,46.5078125 L124.359375,43.0742187 C125.582291,40.0731876 126.735296,36.9938206 127.265625,33.796875 C127.715236,31.0865182 127.68328,28.2701522 127.265625,25.5546875 C126.907133,23.2238816 126.409968,20.7298458 124.96875,18.8632812 C122.729348,15.9629644 120.042578,12.9869893 116.597656,11.7382812 C112.295834,10.178966 107.471628,11.0151465 102.898438,10.8632812 C101.930681,10.8311443 100.731976,10.5403409 100.011719,11.1875 C93.1558979,17.3475339 114.809866,10.2037263 110.527344,9.25390625 C104.575031,7.93374356 96.2124818,5.32328641 92.25,9.95703125 C87.308517,15.7356247 88.0722424,55.7500914 88.765625,61.5039062 C88.880982,62.4611599 91.012505,62.5903149 91.6367188,61.8554688 C95.5380435,57.2626937 102.125214,52.618359 101.394531,46.6367188 C100.797305,41.7476063 93.3516537,40.8120726 88.828125,38.8632812 C87.1096221,38.1229292 84.7807665,37.7803539 83.2148438,38.8046875 C72.1595972,46.0363728 112.235755,32.8459259 87.4375,23.6132812 C81.8583509,21.5361068 76.1895462,19.4290903 70.2929688,18.609375 C67.1472882,18.1720769 63.405589,18.0249757 60.8554688,19.9179687 C57.6764316,22.2778165 39.0056108,53.3299514 45.0703125,56.9960937 C52.1009435,61.2461452 61.4983408,56.6870509 69.7109375,56.4726562 C71.2403644,56.4327297 66.6115546,56.1273056 65.1210938,56.4726562 C61.3263723,57.351921 57.3864528,58.1573152 54.015625,60.109375 C49.3843483,62.7913658 44.9378713,66.0612455 41.4921875,70.15625 C39.4205456,72.6182817 38.5569048,75.9846325 37.9921875,79.1523438 C37.3699186,82.6428836 37.6523891,86.2598098 37.9921875,89.7890625 C38.2458956,92.4241547 38.748259,95.0856462 39.7617188,97.53125 C40.2051348,98.6012679 41.1483978,99.5456728 42.21875,99.9882813 C46.1029379,101.594457 54.3830841,104.291798 59.5039063,103.171875 C60.8750484,102.872006 64.3482455,101.751598 63.1367188,101.042969 C50.0536958,93.3906346 22.0436009,133.35579 17.6210938,144.332031 C17.4123353,144.85015 17.0688937,145.923539 17.6210938,146.007812 C21.2393556,146.560013 24.9414063,146.007812 28.6015625,146.007812" id="Path-24" stroke="#000000" stroke-width="3"></path>
                    <text id="A" font-family="ArialRoundedMTBold, Arial Rounded MT Bold" font-size="100" font-weight="normal" fill="#FFFFFF">
                        <tspan x="86.0380859" y="110">A</tspan>
                    </text>
                </g>
            </g>
        </g>
    </g>
</svg>