<?xml version="1.0" encoding="UTF-8"?>
<svg width="293px" height="163px" viewBox="0 0 293 163" version="1.1" xmlns="http://www.w3.org/2000/svg" xmlns:xlink="http://www.w3.org/1999/xlink">
    <!-- Generator: Sketch 52.6 (67491) - http://www.bohemiancoding.com/sketch -->
    <title>Path 19</title>
    <desc>Created with Sketch.</desc>
    <g id="Page-2" stroke="none" stroke-width="1" fill="none" fill-rule="evenodd">
        <g id="Desktop" transform="translate(-686.000000, -333.000000)" stroke="#49DAA9" stroke-width="5">
            <path d="M690.113281,339.953125 C689.335401,374.640918 687.003816,394.405002 691.03125,425.988281 C692.761773,439.559102 696.17114,452.892322 697.65625,466.492188 C698.492119,474.146643 692.586018,484.091535 697.976562,489.589844 C702.244001,493.942594 709.560764,485.364489 715.632813,484.828125 C727.669278,483.764904 739.807834,484.378851 751.882813,484.828125 C787.763003,486.16312 823.625793,488.004204 859.464844,490.179688 C865.811892,490.564963 872.040178,492.43041 878.398438,492.507813 C907.490776,492.861971 936.596048,492.399323 965.675781,491.472656 C968.934105,491.368825 973.938559,492.411554 975.238281,489.421875 C977.888949,483.324689 975.650155,476.11223 975.238281,469.476562 C974.087883,450.942581 971.599074,432.505101 970.554688,413.964844 C969.355527,392.676995 973.513662,356.539274 966.003906,338.441406 C963.958994,333.513343 955.401897,336.959928 950.066406,336.957031 C869.030024,336.91304 787.996094,337.852865 706.960938,338.300781 L690.113281,339.953125 Z" id="Path-19"></path>
        </g>
    </g>
</svg>