<?xml version="1.0" encoding="UTF-8"?>
<svg width="307px" height="173px" viewBox="0 0 307 173" version="1.1" xmlns="http://www.w3.org/2000/svg" xmlns:xlink="http://www.w3.org/1999/xlink">
    <!-- Generator: Sketch 52.6 (67491) - http://www.bohemiancoding.com/sketch -->
    <title>Path 20</title>
    <desc>Created with Sketch.</desc>
    <g id="Page-2" stroke="none" stroke-width="1" fill="none" fill-rule="evenodd">
        <g id="Desktop" transform="translate(-36.000000, -520.000000)" stroke="#A3DEE9" stroke-width="4">
            <path d="M46.609375,526.625 C38.7366012,570.852121 36.6796186,612.503265 39.2617188,658.074219 C39.861878,668.666306 38.6866418,680.904469 45.0898438,689.363281 C48.2620999,693.553922 55.2755472,686.219477 60.53125,686.171875 C103.547085,685.78227 146.552724,688.024304 189.570313,688.054688 C223.647638,688.078757 284.429381,688.773077 326.949219,684.019531 C329.714109,683.710428 332.553928,683.348377 335.101562,682.230469 C336.16449,681.764053 337.138321,680.650684 337.257812,679.496094 C338.632313,666.214926 339.197292,652.852026 339.523437,639.503906 C340.069957,617.136577 341.330313,594.709437 339.875,572.382812 C338.865791,556.90007 345.674582,534.095488 332.15625,526.480469 C312.588426,515.457706 287.33615,529.866169 264.878906,530.136719 C196.845961,530.956334 128.803385,529.878906 60.765625,529.75 L46.609375,526.625 Z" id="Path-20"></path>
        </g>
    </g>
</svg>