<?xml version="1.0" encoding="UTF-8"?>
<svg width="295px" height="169px" viewBox="0 0 295 169" version="1.1" xmlns="http://www.w3.org/2000/svg" xmlns:xlink="http://www.w3.org/1999/xlink">
    <!-- Generator: Sketch 52.6 (67491) - http://www.bohemiancoding.com/sketch -->
    <title>Path 17</title>
    <desc>Created with Sketch.</desc>
    <g id="Page-2" stroke="none" stroke-width="1" fill="none" fill-rule="evenodd">
        <g id="Desktop" transform="translate(-41.000000, -326.000000)" stroke="#9FC3CA" stroke-width="3">
            <path d="M331.265625,336.480469 C335.75297,433.847379 333.935323,346.315375 329.078125,450.667969 C328.45679,464.016797 333.17007,478.036442 329.078125,490.757813 C327.76707,494.833728 320.470242,491.221658 316.234375,490.597656 C309.598391,489.620084 303.331601,486.552528 296.648438,485.980469 C283.858722,484.885706 270.966947,486.135678 258.140625,485.625 C247.603404,485.205462 237.141988,483.352937 226.597656,483.191406 C184.163833,482.541355 141.717928,482.766774 99.28125,483.191406 C87.5752873,483.308539 75.8500341,483.675449 64.1992188,484.816406 C60.4430644,485.184244 54.197866,491.352375 53.25,487.699219 C49.4759018,473.153524 54.2697821,457.609889 53.25,442.617188 C51.5747517,417.987908 32.3018635,350.69929 50.0859375,336.074219 C72.0342441,318.024612 106.934307,336.710689 135.335938,335.78125 C372.215751,328.029392 81.5422339,330.864497 317.488281,329.941406 L331.265625,336.480469 Z" id="Path-17"></path>
        </g>
    </g>
</svg>