<?xml version="1.0" encoding="UTF-8"?>
<svg width="302px" height="162px" viewBox="0 0 302 162" version="1.1" xmlns="http://www.w3.org/2000/svg" xmlns:xlink="http://www.w3.org/1999/xlink">
    <!-- Generator: Sketch 52.6 (67491) - http://www.bohemiancoding.com/sketch -->
    <title>Path 18</title>
    <desc>Created with Sketch.</desc>
    <g id="Page-2" stroke="none" stroke-width="1" fill="none" fill-rule="evenodd">
        <g id="Desktop" transform="translate(-366.000000, -332.000000)" stroke="#A7F238" stroke-width="2">
            <path d="M373.355469,335.988281 C368.876958,375.992875 366.553574,409.456973 367.746094,449.957031 C368.13583,463.193169 366.024193,477.096589 370.402344,489.59375 C371.570618,492.928516 376.817494,486.248269 380.332031,485.882813 C388.871923,484.994798 397.517246,485.404392 406.089844,485.882813 C417.302463,486.508568 428.394178,488.793354 439.617188,489.191406 C459.523941,489.89745 479.47531,488.3084 499.375,489.191406 C547.4834,491.326113 580.945152,496.838403 628.914062,488.78125 C640.730456,486.796496 655.675076,492.027249 664.535156,483.960938 C670.228757,478.777422 659.692935,469.235414 658.78125,461.589844 C653.766951,419.538924 654.3533,388.411356 644.078125,348.363281 C642.80182,343.388811 644.178902,334.41852 639.082031,333.789062 C628.749391,332.512994 619.791565,341.971069 609.601562,344.105469 C537.76976,359.151371 484.802931,362.507414 408.519531,356.367188 C399.354547,355.629477 391.790365,348.731771 383.425781,344.914062 L373.355469,335.988281 Z" id="Path-18"></path>
        </g>
    </g>
</svg>
