<?xml version="1.0" encoding="UTF-8"?>
<svg width="288px" height="164px" viewBox="0 0 288 164" version="1.1" xmlns="http://www.w3.org/2000/svg" xmlns:xlink="http://www.w3.org/1999/xlink">
    <!-- Generator: Sketch 52.6 (67491) - http://www.bohemiancoding.com/sketch -->
    <title>Path 22</title>
    <desc>Created with Sketch.</desc>
    <g id="Page-2" stroke="none" stroke-width="1" fill="none" fill-rule="evenodd">
        <g id="Desktop" transform="translate(-689.000000, -525.000000)" stroke="#ABE9A1" stroke-width="5">
            <path d="M692.453125,532.679688 C692.453125,600.098214 691.464404,513.080702 700.382812,635.34375 C701.452912,650.01382 697.279693,665.264152 701.113281,679.464844 C702.059793,682.97099 707.528651,675.516065 711.148438,675.222656 C725.202604,674.083469 739.368565,674.479334 753.449219,675.222656 C787.385501,677.014164 821.536109,681.434161 855.597656,682.609375 C932.276598,685.255003 863.850315,681.899518 926.191406,679.902344 C940.11073,679.456421 964.056163,693.681963 967.96875,680.316406 C981.484934,634.14457 968.574245,584.097129 968.320313,535.988281 C968.257334,524.05668 943.067605,528.829908 938.789062,529.050781 C921.992824,529.917861 905.284758,532.450583 888.46875,532.746094 C685.536626,536.312259 785.221473,527.404239 713.246094,534.183594 L692.453125,532.679688 Z" id="Path-22"></path>
        </g>
    </g>
</svg>