<?xml version="1.0" encoding="UTF-8"?>
<svg width="299px" height="174px" viewBox="0 0 299 174" version="1.1" xmlns="http://www.w3.org/2000/svg" xmlns:xlink="http://www.w3.org/1999/xlink">
    <!-- Generator: Sketch 52.6 (67491) - http://www.bohemiancoding.com/sketch -->
    <title>Path 21</title>
    <desc>Created with Sketch.</desc>
    <g id="Page-2" stroke="none" stroke-width="1" fill="none" fill-rule="evenodd">
        <g id="Desktop" transform="translate(-364.000000, -521.000000)" stroke="#4E3CA2" stroke-width="4">
            <path d="M368.046875,529.125 C437.268091,529.044148 501.912139,528.709202 569.914063,526.570312 C585.543224,526.078723 641.726341,520.517078 655.769531,525.984375 C660.750015,527.923378 656.44929,536.685306 656.058594,542.015625 C655.414132,550.808105 652.991344,559.435817 652.671875,568.246094 C646.36047,742.301102 651.49798,585.950514 655.007813,653.421875 C655.580229,664.425743 666.073379,684.036831 655.328125,686.476562 C589.296908,701.469081 509.604624,683.499404 441.089844,680.738281 C418.523367,679.82886 394.35856,689.245808 373.335938,680.992188 C365.372564,677.865715 376.726892,664.146498 377.054688,655.597656 C378.602486,615.231333 378.830931,577.566391 372.265625,538.320312 L368.046875,529.125 Z" id="Path-21"></path>
        </g>
    </g>
</svg>